<?xml version="1.0" standalone="no"?>
<!DOCTYPE svg PUBLIC "-//W3C//DTD SVG 20010904//EN"
 "http://www.w3.org/TR/2001/REC-SVG-20010904/DTD/svg10.dtd">
<svg version="1.0" xmlns="http://www.w3.org/2000/svg"
 width="192.000000pt" height="192.000000pt" viewBox="0 0 192.000000 192.000000"
 preserveAspectRatio="xMidYMid meet">
<metadata>
Created by potrace 1.15, written by Peter Selinger 2001-2017
</metadata>
<g transform="translate(0.000000,192.000000) scale(0.100000,-0.100000)"
fill="#000000" stroke="none">
<path d="M887 1752 c-22 -25 -21 -45 3 -67 15 -14 20 -31 20 -72 l0 -53 50 0
50 0 0 53 c0 41 5 58 20 72 47 42 11 85 -72 85 -40 0 -59 -5 -71 -18z"/>
<path d="M668 1629 c-26 -12 -50 -30 -53 -40 -8 -25 10 -56 37 -65 13 -4 26
-11 30 -17 4 -7 19 -7 46 2 38 13 41 16 47 63 11 80 -18 96 -107 57z"/>
<path d="M1139 1629 c-8 -16 -8 -28 0 -46 6 -13 11 -32 11 -42 0 -22 77 -52
88 -33 4 6 20 16 35 21 24 9 28 16 25 43 -2 28 -10 37 -48 56 -57 28 -96 29
-111 1z"/>
<path d="M387 1532 c-56 -57 -45 -122 18 -110 20 4 33 -3 61 -34 l36 -40 34
33 34 33 -40 41 c-30 31 -38 45 -34 63 8 29 -12 52 -45 52 -18 0 -39 -13 -64
-38z"/>
<path d="M1430 1555 c-7 -8 -10 -25 -6 -37 4 -18 -4 -32 -34 -63 l-40 -41 34
-33 34 -33 36 40 c28 31 41 38 61 34 64 -12 74 55 17 111 -41 40 -80 48 -102
22z"/>
<path d="M1540 1290 c-11 -11 -20 -26 -20 -34 0 -8 -5 -16 -12 -18 -10 -4 -9
-14 1 -45 13 -39 16 -42 63 -48 80 -11 95 15 57 101 -29 69 -53 80 -89 44z"/>
<path d="M312 1288 c-17 -22 -42 -89 -42 -114 0 -32 38 -51 68 -35 11 6 29 11
40 11 23 0 53 77 34 88 -6 4 -15 20 -21 35 -8 21 -17 27 -40 27 -15 0 -33 -6
-39 -12z"/>
<path d="M167 1032 c-24 -27 -23 -123 1 -145 25 -22 45 -21 67 3 14 15 31 20
72 20 l53 0 0 50 0 50 -53 0 c-41 0 -58 5 -72 20 -23 25 -47 26 -68 2z"/>
<path d="M1685 1030 c-14 -15 -31 -20 -72 -20 l-53 0 0 -50 0 -50 53 0 c41 0
58 -5 72 -20 42 -47 85 -11 85 72 0 79 -43 114 -85 68z"/>
<path d="M1580 780 c-8 -5 -24 -10 -36 -10 -15 0 -24 -10 -34 -41 -10 -29 -11
-42 -2 -47 6 -4 16 -20 21 -35 9 -24 16 -28 43 -25 28 3 36 10 55 48 28 57 29
96 4 110 -24 12 -32 12 -51 0z"/>
<path d="M282 768 c-17 -17 -15 -38 9 -96 31 -76 70 -81 109 -14 19 32 20 40
10 73 -11 31 -18 38 -49 43 -52 8 -66 7 -79 -6z"/>
<path d="M463 531 c-26 -30 -38 -37 -58 -33 -64 12 -74 -55 -17 -111 56 -55
124 -45 108 16 -4 18 3 32 34 62 l40 39 -32 33 c-18 18 -34 33 -37 32 -4 0
-21 -18 -38 -38z"/>
<path d="M1382 537 l-32 -33 40 -39 c31 -30 38 -44 34 -62 -16 -62 54 -71 109
-15 56 57 45 122 -18 110 -20 -4 -33 3 -60 33 -19 22 -36 39 -38 39 -2 0 -17
-15 -35 -33z"/>
<path d="M680 412 c0 -4 -14 -13 -31 -19 -27 -10 -30 -16 -27 -45 3 -28 10
-37 48 -55 59 -30 97 -30 111 1 8 17 8 29 0 44 -6 11 -11 29 -11 39 0 12 -12
23 -33 31 -39 14 -57 15 -57 4z"/>
<path d="M1177 407 c-20 -8 -27 -17 -24 -29 3 -10 1 -21 -4 -24 -13 -8 -11
-58 3 -72 7 -7 20 -12 31 -12 32 0 116 41 122 61 9 26 -11 58 -40 65 -14 3
-25 10 -25 15 0 12 -28 10 -63 -4z"/>
<path d="M910 307 c0 -41 -5 -58 -20 -72 -47 -42 -11 -85 72 -85 79 0 114 43
68 85 -15 14 -20 31 -20 72 l0 53 -50 0 -50 0 0 -53z"/>
</g>
</svg>
