<svg height="512pt" viewBox="0 0 512 512" width="512pt" xmlns="http://www.w3.org/2000/svg"><g fill="#f1e34e"><path d="m457.640625 162.941406c0-7.453125 6.039063-13.492187 13.492187-13.492187h27.375c7.453126 0 13.492188 6.039062 13.492188 13.492187s-6.039062 13.492188-13.492188 13.492188h-27.375c-7.453124 0-13.492187-6.039063-13.492187-13.492188zm0 0"/><path d="m447.882812 197.152344c5.269532-5.269532 13.8125-5.269532 19.082032 0l19.355468 19.355468c5.269532 5.269532 5.269532 13.8125 0 19.082032-5.269531 5.269531-13.8125 5.269531-19.082031 0l-19.355469-19.355469c-5.273437-5.269531-5.273437-13.8125 0-19.082031zm0 0"/><path d="m413.667969 206.914062c-7.453125 0-13.492188 6.039063-13.492188 13.492188v27.371094c0 7.453125 6.039063 13.496094 13.492188 13.496094s13.492187-6.042969 13.492187-13.496094v-27.371094c0-7.453125-6.039062-13.492188-13.492187-13.492188zm0 0"/><path d="m349.058594 54.359375c7.453125 0 13.492187-6.039063 13.492187-13.492187v-27.375c0-7.453126-6.039062-13.492188-13.492187-13.492188s-13.492188 6.039062-13.492188 13.492188v27.375c0 7.453124 6.039063 13.492187 13.492188 13.492187zm0 0"/><path d="m314.847656 64.117188c5.269532-5.269532 5.269532-13.8125 0-19.082032l-19.355468-19.355468c-5.269532-5.269532-13.8125-5.269532-19.082032 0-5.269531 5.269531-5.269531 13.8125 0 19.082031l19.355469 19.355469c5.269531 5.273437 13.8125 5.273437 19.082031 0zm0 0"/><path d="m432.34375 126c-5.269531-5.269531-5.269531-13.8125 0-19.082031l19.355469-19.355469c5.265625-5.269531 13.8125-5.269531 19.082031 0s5.269531 13.816406 0 19.082031l-19.355469 19.355469c-5.269531 5.273438-13.8125 5.273438-19.082031 0zm0 0"/><path d="m376.730469 181.613281c-5.269531-5.269531-13.816407-5.269531-19.085938 0l-19.355469 19.355469c-5.265624 5.269531-5.265624 13.816406 0 19.085938 5.269532 5.265624 13.816407 5.265624 19.085938 0l19.355469-19.355469c5.269531-5.273438 5.269531-13.816407 0-19.085938zm0 0"/><path d="m386 79.65625c5.269531 5.269531 13.8125 5.269531 19.082031 0l19.355469-19.355469c5.269531-5.265625 5.269531-13.8125 0-19.082031s-13.816406-5.269531-19.082031 0l-19.355469 19.355469c-5.273438 5.269531-5.273438 13.8125 0 19.082031zm0 0"/><path d="m330.386719 135.269531c5.269531 5.269531 5.269531 13.816407 0 19.085938l-19.355469 19.355469c-5.269531 5.265624-13.816406 5.265624-19.085938 0-5.265624-5.269532-5.265624-13.816407 0-19.085938l19.355469-19.355469c5.273438-5.269531 13.816407-5.269531 19.085938 0zm0 0"/><path d="m305.085938 98.332031c0 7.453125-6.039063 13.492188-13.492188 13.492188h-27.371094c-7.453125 0-13.496094-6.039063-13.496094-13.492188s6.042969-13.492187 13.496094-13.492187h27.371094c7.453125 0 13.492188 6.039062 13.492188 13.492187zm0 0"/><path d="m211.664062 243.214844c-9.679687 0-17.527343-7.847656-17.527343-17.527344v-35.558594c0-9.679687 7.847656-17.527344 17.527343-17.527344 9.679688 0 17.527344 7.847657 17.527344 17.527344v35.558594c0 9.679688-7.847656 17.527344-17.527344 17.527344zm0 0"/><path d="m256.105469 255.894531c-6.84375-6.847656-6.84375-17.945312 0-24.789062l25.144531-25.144531c6.847656-6.847657 17.945312-6.847657 24.789062 0 6.847657 6.84375 6.847657 17.941406 0 24.789062l-25.144531 25.144531c-6.84375 6.84375-17.941406 6.84375-24.789062 0zm0 0"/><path d="m268.785156 300.335938c0 9.679687 7.847656 17.527343 17.527344 17.527343h35.558594c9.679687 0 17.527344-7.847656 17.527344-17.527343 0-9.679688-7.847657-17.527344-17.527344-17.527344h-35.558594c-9.679688 0-17.527344 7.847656-17.527344 17.527344zm0 0"/><path d="m70.613281 384.265625c0-9.679687-7.847656-17.53125-17.527343-17.53125h-35.558594c-9.679688 0-17.527344 7.851563-17.527344 17.53125s7.847656 17.527344 17.527344 17.527344h35.558594c9.679687 0 17.527343-7.847657 17.527343-17.527344zm0 0"/><path d="m83.292969 428.707031c-6.847657-6.84375-17.945313-6.84375-24.789063 0l-25.144531 25.144531c-6.84375 6.84375-6.84375 17.945313 0 24.789063s17.945313 6.84375 24.789063 0l25.144531-25.144531c6.84375-6.84375 6.84375-17.941406 0-24.789063zm0 0"/><path d="m163.679688 276.078125c-6.847657 6.84375-17.945313 6.84375-24.789063 0l-25.144531-25.144531c-6.84375-6.84375-6.84375-17.941406 0-24.789063 6.847656-6.84375 17.945312-6.84375 24.789062 0l25.144532 25.144531c6.84375 6.84375 6.84375 17.945313 0 24.789063zm0 0"/><path d="m235.921875 348.320312c-6.84375 6.847657-6.84375 17.945313 0 24.789063l25.144531 25.144531c6.84375 6.84375 17.941406 6.84375 24.789063 0 6.84375-6.847656 6.84375-17.945312 0-24.789062l-25.144531-25.144532c-6.84375-6.84375-17.945313-6.84375-24.789063 0zm0 0"/><path d="m103.476562 336.28125c6.847657-6.847656 6.847657-17.945312 0-24.789062l-25.144531-25.144532c-6.84375-6.847656-17.941406-6.847656-24.789062 0-6.84375 6.84375-6.84375 17.941406 0 24.789063l25.144531 25.144531c6.847656 6.84375 17.945312 6.84375 24.789062 0zm0 0"/><path d="m175.71875 408.523438c6.847656-6.847657 17.945312-6.847657 24.789062 0l25.144532 25.144531c6.847656 6.84375 6.847656 17.941406 0 24.789062-6.84375 6.84375-17.941406 6.84375-24.789063 0l-25.144531-25.144531c-6.84375-6.847656-6.84375-17.945312 0-24.789062zm0 0"/><path d="m127.734375 441.386719c9.679687 0 17.53125 7.847656 17.53125 17.527343v35.558594c0 9.679688-7.851563 17.527344-17.53125 17.527344s-17.527344-7.847656-17.527344-17.527344v-35.558594c0-9.679687 7.847657-17.527343 17.527344-17.527343zm0 0"/></g><path d="m292.285156 219.714844c-4.199218-4.203125-8.714844-7.972656-13.488281-11.300782l-22.6875 22.691407c-6.847656 6.84375-6.847656 17.941406 0 24.789062 6.84375 6.84375 17.941406 6.84375 24.789063 0l22.6875-22.691406c-3.328126-4.773437-7.097657-9.289063-11.300782-13.488281zm0 0" fill="#efbe3b"/><path d="m268.785156 300.335938c0 9.679687 7.847656 17.527343 17.527344 17.527343h30.664062c2.742188-9.121093 4.164063-18.699219 4.164063-28.492187 0-2.199219-.078125-4.390625-.21875-6.5625h-34.609375c-9.679688 0-17.527344 7.847656-17.527344 17.527344zm0 0" fill="#efbe3b"/><path d="m260.710938 348.320312c-6.84375-6.84375-17.945313-6.84375-24.789063 0-6.84375 6.847657-6.84375 17.945313 0 24.789063l21.140625 21.140625 24.789062-24.789062zm0 0" fill="#efbe3b"/><path d="m221.652344 429.664062-21.144532-21.140624c-6.84375-6.847657-17.941406-6.847657-24.789062 0-6.84375 6.84375-6.84375 17.941406 0 24.789062l21.144531 21.140625zm0 0" fill="#efbe3b"/><path d="m116.769531 493.742188c9.792969 0 19.371094-1.421876 28.496094-4.167969v-30.660157c0-9.679687-7.851563-17.527343-17.53125-17.527343s-17.527344 7.847656-17.527344 17.527343v34.609376c2.175781.140624 4.363281.21875 6.5625.21875zm0 0" fill="#efbe3b"/><path d="m58.503906 428.707031-22.691406 22.691407c3.328125 4.773437 7.097656 9.289062 11.300781 13.488281 4.199219 4.203125 8.714844 7.972656 13.488281 11.300781l22.691407-22.691406c6.84375-6.84375 6.84375-17.941406 0-24.789063-6.847657-6.84375-17.945313-6.84375-24.789063 0zm0 0" fill="#efbe3b"/><path d="m53.085938 366.734375h-30.660157c-2.746093 9.125-4.167969 18.699219-4.167969 28.496094 0 2.199219.078126 4.386719.222657 6.5625h34.605469c9.679687 0 17.527343-7.847657 17.527343-17.527344 0-9.683594-7.847656-17.53125-17.527343-17.53125zm0 0" fill="#efbe3b"/><path d="m78.6875 336.28125c6.847656 6.84375 17.945312 6.84375 24.789062 0 6.847657-6.847656 6.847657-17.945312 0-24.789062l-21.140624-21.144532-24.789063 24.789063zm0 0" fill="#efbe3b"/><path d="m142.539062 230.148438-24.789062 24.789062 21.140625 21.140625c6.84375 6.84375 17.941406 6.84375 24.789063 0 6.84375-6.84375 6.84375-17.945313 0-24.789063zm0 0" fill="#efbe3b"/><path d="m222.628906 190.859375c-9.792968 0-19.371094 1.421875-28.492187 4.164063v30.664062c0 9.679688 7.847656 17.527344 17.527343 17.527344 9.679688 0 17.527344-7.847656 17.527344-17.527344v-34.609375c-2.175781-.140625-4.363281-.21875-6.5625-.21875zm0 0" fill="#efbe3b"/><path d="m163.898438 230.640625-105.859376 105.859375c-32.4375 32.4375-32.4375 85.023438 0 117.460938s85.023438 32.4375 117.460938 0l105.859375-105.859376c32.4375-32.4375 32.4375-85.027343 0-117.460937-32.433594-32.4375-85.023437-32.4375-117.460937 0zm0 0" fill="#00c67f"/><path d="m150.121094 428.582031c-18.390625 18.390625-48.3125 18.390625-66.707032 0-18.390624-18.390625-18.390624-48.3125 0-66.707031l105.863282-105.859375c18.390625-18.390625 48.3125-18.390625 66.707031 0 18.390625 18.390625 18.390625 48.316406 0 66.707031zm0 0" fill="#b0ebce"/><path d="m104.019531 407.980469c-18.390625-18.390625-18.390625-48.316407 0-66.707031l85.257813-85.257813-105.863282 105.863281c-18.390624 18.390625-18.390624 48.316406 0 66.707032 18.390626 18.390624 48.316407 18.390624 66.707032 0l20.605468-20.605469c-18.390624 18.390625-48.316406 18.390625-66.707031 0zm0 0" fill="#60d9a7"/><path d="m275.785156 44.074219c.203125.234375.402344.46875.625.6875l19.355469 19.359375c5.269531 5.269531 13.8125 5.269531 19.082031 0 5.269532-5.269532 5.269532-13.816406 0-19.085938l-19.355468-19.355468c-.222657-.21875-.457032-.417969-.6875-.621094-3.640626 2.582031-7.101563 5.472656-10.324219 8.695312-3.222657 3.21875-6.109375 6.679688-8.695313 10.320313zm0 0" fill="#efbe3b"/><path d="m340.617188 10.5c-1.589844 0-3.171876.058594-4.746094.152344-.195313.917968-.304688 1.867187-.304688 2.839844v27.375c0 7.453124 6.039063 13.492187 13.492188 13.492187s13.492187-6.039063 13.492187-13.492187v-27.292969c-7.042969-2.015625-14.402343-3.074219-21.933593-3.074219zm0 0" fill="#efbe3b"/><path d="m404.789062 41.785156-18.789062 18.789063c-5.269531 5.269531-5.269531 13.8125 0 19.082031s13.8125 5.269531 19.082031 0l18.789063-18.789062zm0 0" fill="#efbe3b"/><path d="m451.132812 88.128906-18.789062 18.789063c-5.269531 5.269531-5.269531 13.816406 0 19.085937 5.269531 5.269532 13.8125 5.269532 19.082031 0l18.789063-18.792968zm0 0" fill="#efbe3b"/><path d="m471.132812 149.449219c-7.453124 0-13.492187 6.039062-13.492187 13.492187s6.039063 13.492188 13.492187 13.492188h27.375c.972657 0 1.921876-.105469 2.839844-.304688.09375-1.574218.152344-3.152344.152344-4.746094 0-7.527343-1.058594-14.890624-3.074219-21.933593zm0 0" fill="#efbe3b"/><path d="m486.941406 217.199219c-.203125-.234375-.402344-.46875-.621094-.691407l-19.355468-19.355468c-5.269532-5.269532-13.816406-5.269532-19.085938 0-5.269531 5.269531-5.269531 13.8125 0 19.082031l19.355469 19.359375c.222656.21875.457031.417969.691406.621094 3.640625-2.585938 7.101563-5.472656 10.320313-8.695313 3.222656-3.21875 6.113281-6.679687 8.695312-10.320312zm0 0" fill="#efbe3b"/><path d="m413.667969 206.910156c-7.453125 0-13.492188 6.042969-13.492188 13.496094v27.292969c7.042969 2.011719 14.40625 3.074219 21.933594 3.074219 1.589844 0 3.171875-.0625 4.746094-.152344.199219-.917969.304687-1.867188.304687-2.839844v-27.375c0-7.453125-6.039062-13.496094-13.492187-13.496094zm0 0" fill="#efbe3b"/><path d="m357.941406 219.488281 18.789063-18.792969c5.269531-5.269531 5.269531-13.8125 0-19.082031s-13.8125-5.269531-19.082031 0l-18.792969 18.789063zm0 0" fill="#efbe3b"/><path d="m311.59375 173.144531 18.792969-18.792969c5.269531-5.269531 5.269531-13.8125 0-19.082031s-13.816407-5.269531-19.085938 0l-18.789062 18.789063zm0 0" fill="#efbe3b"/><path d="m291.59375 111.824219c7.453125 0 13.492188-6.039063 13.492188-13.492188s-6.039063-13.492187-13.492188-13.492187h-27.371094c-.976562 0-1.925781.105468-2.84375.304687-.09375 1.574219-.152344 3.15625-.152344 4.746094 0 7.527344 1.058594 14.890625 3.074219 21.933594zm0 0" fill="#efbe3b"/><path d="m467.320312 126.171875-81.492187-81.492187c-24.96875-24.96875-65.453125-24.96875-90.421875 0s-24.96875 65.453124 0 90.421874l81.492188 81.492188c24.96875 24.96875 65.453124 24.96875 90.421874 0s24.96875-65.453125 0-90.421875zm0 0" fill="#00c67f"/><path d="m314.941406 115.566406c-14.15625-14.160156-14.15625-37.195312 0-51.351562s37.195313-14.15625 51.351563 0l81.492187 81.492187c14.15625 14.160157 14.15625 37.195313 0 51.351563-14.160156 14.15625-37.195312 14.15625-51.351562 0zm0 0" fill="#b0ebce"/><path d="m447.785156 145.707031-20.601562-20.605469c14.15625 14.160157 14.15625 37.195313 0 51.351563-14.160156 14.160156-37.195313 14.160156-51.351563 0l20.601563 20.605469c14.160156 14.15625 37.195312 14.15625 51.351562 0 14.160156-14.15625 14.15625-37.195313 0-51.351563zm0 0" fill="#60d9a7"/><path d="m128.886719 394.433594c-1.976563 0-3.953125-.753906-5.460938-2.261719l-7.714843-7.710937c-3.015626-3.019532-3.015626-7.910157 0-10.925782 3.019531-3.019531 7.910156-3.019531 10.925781 0l7.714843 7.710938c3.015626 3.015625 3.015626 7.90625 0 10.925781-1.507812 1.507813-3.488281 2.261719-5.464843 2.261719zm0 0" fill="#334151"/><path d="m214.109375 309.214844c-1.976563 0-3.957031-.753906-5.464844-2.265625l-7.710937-7.710938c-3.015625-3.015625-3.015625-7.910156 0-10.925781s7.910156-3.015625 10.925781 0l7.710937 7.710938c3.019532 3.019531 3.019532 7.910156 0 10.925781-1.507812 1.507812-3.484374 2.265625-5.460937 2.265625zm0 0" fill="#334151"/><path d="m161.6875 361.847656c-.585938 0-1.175781-.019531-1.761719-.058594-4.257812-.289062-7.476562-3.972656-7.191406-8.230468.285156-4.257813 3.964844-7.472656 8.226563-7.1875 3.3125.222656 6.667968-1.097656 9.191406-3.621094 2.519531-2.519531 3.839844-5.871094 3.617187-9.1875-.285156-4.257812 2.933594-7.941406 7.191407-8.226562 4.261718-.285157 7.941406 2.933593 8.226562 7.191406.519531 7.765625-2.433594 15.476562-8.109375 21.148437-5.246094 5.246094-12.230469 8.171875-19.390625 8.171875zm0 0" fill="#334151"/><path d="m347.179688 106.945312c-1.976563 0-3.957032-.753906-5.464844-2.265624-3.019532-3.015626-3.019532-7.90625 0-10.925782l5.9375-5.9375c3.015625-3.015625 7.910156-3.015625 10.925781 0 3.015625 3.019532 3.015625 7.910156 0 10.925782l-5.9375 5.9375c-1.507813 1.511718-3.484375 2.265624-5.460937 2.265624zm0 0" fill="#334151"/><path d="m412.78125 172.546875c-1.976562 0-3.953125-.753906-5.464844-2.261719-3.015625-3.019531-3.015625-7.910156 0-10.925781l5.9375-5.9375c3.019532-3.015625 7.910156-3.015625 10.929688 0 3.015625 3.015625 3.015625 7.910156 0 10.925781l-5.9375 5.9375c-1.511719 1.507813-3.488282 2.261719-5.464844 2.261719zm0 0" fill="#334151"/><path d="m387.535156 147.460938c-5.984375 0-11.816406-2.4375-16.1875-6.808594-4.730468-4.730469-7.195312-11.167969-6.761718-17.660156.285156-4.257813 3.976562-7.480469 8.226562-7.191407 4.257812.285157 7.480469 3.96875 7.191406 8.226563-.136718 2.042968.691406 4.121094 2.269532 5.699218 1.578124 1.578126 3.660156 2.40625 5.695312 2.265626 4.257812-.28125 7.941406 2.9375 8.226562 7.195312.285157 4.257812-2.933593 7.9375-7.191406 8.222656-.488281.035156-.980468.050782-1.46875.050782zm0 0" fill="#334151"/></svg>